<svg xmlns="http://www.w3.org/2000/svg" width="1000" height="330" viewBox="0 0 1000 330" role="img"><title>Shubham — AI applications, Python and creative tools</title>
<defs><linearGradient id="bg" x2="1" y2="1"><stop stop-color="#10162d"/><stop offset="1" stop-color="#18102d"/></linearGradient><linearGradient id="accent"><stop stop-color="#74e7ef"/><stop offset="1" stop-color="#b39aff"/></linearGradient><pattern id="grid" width="36" height="36" patternUnits="userSpaceOnUse"><path d="M 36 0 H 0 V 36" fill="none" stroke="#ffffff" stroke-opacity=".035"/></pattern></defs>
<rect width="1000" height="330" rx="22" fill="url(#bg)"/><rect width="1000" height="330" rx="22" fill="url(#grid)"/>
<path d="M700 0L520 330M860 0L680 330M1020 0L840 330" stroke="#a78bfa" stroke-opacity=".08" stroke-width="50"/>
<rect x="48" y="43" width="5" height="17" rx="2" fill="#74e7ef"/>
<g font-family="Arial, Helvetica, sans-serif"><text x="66" y="57" font-size="13" letter-spacing="3" fill="#bac6e3">DEVWITHSHUBHAM18</text>
<text x="48" y="111" fill="#c4cde2" font-size="21">Hello, world. I'm</text>
<text x="44" y="185" fill="url(#accent)" font-size="78" font-weight="700" letter-spacing="-3">Shubham.</text>
<text x="48" y="227" fill="#e0e6f3" font-size="20">Turning documents into useful information with AI.</text>
<text x="48" y="286" fill="#98a6c4" font-size="13" letter-spacing="2">PYTHON  /  AI APPLICATIONS  /  CREATIVE TOOLS</text></g>
<g transform="translate(787 79)"><rect width="157" height="135" rx="18" fill="#111a30" stroke="#394163"/><circle cx="21" cy="21" r="4" fill="#74e7ef"/><circle cx="36" cy="21" r="4" fill="#b39aff"/><circle cx="51" cy="21" r="4" fill="#47516d"/><path d="M52 57L31 78L52 99M106 57L127 78L106 99M88 50L70 106" fill="none" stroke="url(#accent)" stroke-width="5" stroke-linecap="round" stroke-linejoin="round"/></g></svg>